<?xml version="1.0" ?><svg id="Layer_3" style="enable-background:new 0 0 32 32;" version="1.1" viewBox="0 0 32 32" xml:space="preserve" xmlns="http://www.w3.org/2000/svg" xmlns:xlink="http://www.w3.org/1999/xlink"><g><path d="M1,2v11.50879c0,0.55273,0.44775,1,1,1h11.50879c0.55225,0,1-0.44727,1-1V2c0-0.55273-0.44775-1-1-1H2   C1.44775,1,1,1.44727,1,2z M3,3h9.50879v9.50879H3V3z"/><path d="M30,1H18.49121c-0.55225,0-1,0.44727-1,1v11.50879c0,0.55273,0.44775,1,1,1H30c0.55225,0,1-0.44727,1-1V2   C31,1.44727,30.55225,1,30,1z M29,12.50879h-9.50879V3H29V12.50879z"/><path d="M14.50879,30V18.49121c0-0.55273-0.44775-1-1-1H2c-0.55225,0-1,0.44727-1,1V30c0,0.55273,0.44775,1,1,1h11.50879   C14.06104,31,14.50879,30.55273,14.50879,30z M12.50879,29H3v-9.50879h9.50879V29z"/><path d="M30,17.49121H18.49121c-0.55225,0-1,0.44727-1,1V30c0,0.55273,0.44775,1,1,1H30c0.55225,0,1-0.44727,1-1V18.49121   C31,17.93848,30.55225,17.49121,30,17.49121z M29,29h-9.50879v-9.50879H29V29z"/></g></svg>